<?xml version="1.0" ?><!DOCTYPE svg  PUBLIC '-//W3C//DTD SVG 1.1//EN'  'http://www.w3.org/Graphics/SVG/1.1/DTD/svg11.dtd'><svg height="512px" style="enable-background:new 0 0 512 512;" version="1.1" viewBox="0 0 512 512" width="512px" xml:space="preserve" xmlns="http://www.w3.org/2000/svg" xmlns:xlink="http://www.w3.org/1999/xlink"><g id="food__x2C__dish__x2C__kitchen__x2C_"><g><g><path d="M495.582,465.117c-0.004,0-0.012,0-0.02,0H20.306c-2.485,0-4.5-2.015-4.5-4.5     c0-133.316,108.77-241.777,242.466-241.777c64.229,0,124.829,25.175,170.636,70.888c45.781,45.688,71.04,106.212,71.154,170.458     c0.013,0.142,0.02,0.285,0.02,0.431C500.082,463.103,498.067,465.117,495.582,465.117z M24.849,456.117h466.17     C488.611,329.833,385.129,227.84,258.272,227.84C131.047,227.84,27.264,329.833,24.849,456.117z" style="fill:#221F20;"/></g><g><path d="M496.239,499.709H16.242c-2.485,0-4.5-2.015-4.5-4.5s2.015-4.5,4.5-4.5h479.997     c2.485,0,4.5,2.015,4.5,4.5S498.725,499.709,496.239,499.709z" style="fill:#221F20;"/></g><g><path d="M404.722,353.942c-1.519,0-3.001-0.77-3.849-2.162c-30.727-50.517-86.406-81.898-145.31-81.898     c-2.485,0-4.5-2.015-4.5-4.5s2.015-4.5,4.5-4.5c31.194,0,61.978,8.235,89.025,23.816c26.202,15.095,48.324,36.674,63.975,62.404     c1.291,2.124,0.617,4.892-1.506,6.184C406.326,353.73,405.519,353.942,404.722,353.942z" style="fill:#221F20;"/></g><g><path d="M252.854,227.84c-25.718,0-45.864-20.443-45.864-46.542c0-25.705,20.146-45.84,45.864-45.84     c25.656,0,46.529,20.563,46.529,45.84c0,12.614-4.867,24.375-13.705,33.119C276.93,223.073,265.272,227.84,252.854,227.84z      M252.854,144.459c-20.671,0-36.864,16.182-36.864,36.84c0,21.051,16.192,37.542,36.864,37.542     c21.045,0,37.529-16.49,37.529-37.542C290.384,160.985,273.548,144.459,252.854,144.459z" style="fill:#221F20;"/></g><g><path d="M95.561,371.575H75.906c-2.485,0-4.5-2.015-4.5-4.5s2.015-4.5,4.5-4.5h19.655     c2.485,0,4.5,2.015,4.5,4.5S98.046,371.575,95.561,371.575z" style="fill:#221F20;"/></g><g><path d="M107.765,411.563H88.109c-2.485,0-4.5-2.015-4.5-4.5s2.015-4.5,4.5-4.5h19.656     c2.485,0,4.5,2.015,4.5,4.5S110.25,411.563,107.765,411.563z" style="fill:#221F20;"/></g><g><path d="M152.516,380.382h-18.989c-2.485,0-4.5-2.015-4.5-4.5s2.015-4.5,4.5-4.5h18.989     c2.485,0,4.5,2.015,4.5,4.5S155.001,380.382,152.516,380.382z" style="fill:#221F20;"/></g><g><path d="M176.246,423.777h-18.989c-2.485,0-4.5-2.015-4.5-4.5s2.015-4.5,4.5-4.5h18.989     c2.485,0,4.5,2.015,4.5,4.5S178.731,423.777,176.246,423.777z" style="fill:#221F20;"/></g><g><path d="M136.235,343.757h-18.977c-2.485,0-4.5-2.015-4.5-4.5s2.015-4.5,4.5-4.5h18.977     c2.485,0,4.5,2.015,4.5,4.5S138.721,343.757,136.235,343.757z" style="fill:#221F20;"/></g><g><path d="M190.481,329.535h-19.667c-2.485,0-4.5-2.015-4.5-4.5s2.015-4.5,4.5-4.5h19.667     c2.485,0,4.5,2.015,4.5,4.5S192.967,329.535,190.481,329.535z" style="fill:#221F20;"/></g><g><path d="M210.135,371.575h-18.978c-2.485,0-4.5-2.015-4.5-4.5s2.015-4.5,4.5-4.5h18.978     c2.485,0,4.5,2.015,4.5,4.5S212.621,371.575,210.135,371.575z" style="fill:#221F20;"/></g><g><path d="M220.984,410.884H201.33c-2.485,0-4.5-2.015-4.5-4.5s2.015-4.5,4.5-4.5h19.655     c2.485,0,4.5,2.015,4.5,4.5S223.47,410.884,220.984,410.884z" style="fill:#221F20;"/></g><g><path d="M159.289,160.714c-2.485,0-4.5-2.015-4.5-4.5v-73.9c0-2.485,2.015-4.5,4.5-4.5s4.5,2.015,4.5,4.5     v73.9C163.789,158.7,161.774,160.714,159.289,160.714z" style="fill:#221F20;"/></g><g><path d="M327.432,141.749c-2.485,0-4.5-2.015-4.5-4.5V84.347c0-2.485,2.015-4.5,4.5-4.5s4.5,2.015,4.5,4.5     v52.902C331.932,139.734,329.917,141.749,327.432,141.749z" style="fill:#221F20;"/></g><g><path d="M396.578,214.948c-2.485,0-4.5-2.015-4.5-4.5v-62.362c0-2.485,2.015-4.5,4.5-4.5     s4.5,2.015,4.5,4.5v62.362C401.078,212.933,399.063,214.948,396.578,214.948z" style="fill:#221F20;"/></g><g><path d="M89.465,232.582c-2.485,0-4.5-2.015-4.5-4.5v-73.899c0-2.485,2.015-4.5,4.5-4.5s4.5,2.015,4.5,4.5     v73.899C93.965,230.567,91.95,232.582,89.465,232.582z" style="fill:#221F20;"/></g><g><path d="M253.531,84.106c-2.485,0-4.5-2.015-4.5-4.5V17.244c0-2.485,2.015-4.5,4.5-4.5s4.5,2.015,4.5,4.5     v62.362C258.031,82.091,256.017,84.106,253.531,84.106z" style="fill:#221F20;"/></g></g></g><g id="Layer_1"/></svg>